<svg xmlns="http://www.w3.org/2000/svg" viewBox="0 0 280 64" width="280" height="64">
  <g transform="translate(8,6)">
    <circle cx="26" cy="26" r="22" fill="none" stroke="#e0dbd5" stroke-width="2.5"/>
    <path d="M6,38 A22,22 0 0,1 43.5,8.5" fill="none" stroke="#D85A30" stroke-width="2.5" stroke-linecap="round"/>
    <g stroke="#d0cbc5" stroke-width="1.2" stroke-linecap="round">
      <line x1="4" y1="26" x2="8.5" y2="26" transform="rotate(-80,26,26)"/>
      <line x1="4" y1="26" x2="8.5" y2="26" transform="rotate(-55,26,26)"/>
      <line x1="4" y1="26" x2="8.5" y2="26" transform="rotate(-30,26,26)"/>
      <line x1="4" y1="26" x2="8.5" y2="26" transform="rotate(-5,26,26)"/>
      <line x1="4" y1="26" x2="8.5" y2="26" transform="rotate(20,26,26)"/>
      <line x1="4" y1="26" x2="8.5" y2="26" transform="rotate(45,26,26)"/>
      <line x1="4" y1="26" x2="8.5" y2="26" transform="rotate(70,26,26)"/>
      <line x1="4" y1="26" x2="8.5" y2="26" transform="rotate(95,26,26)"/>
    </g>
    <line x1="26" y1="26" x2="43.5" y2="8.5" stroke="#111" stroke-width="1.8" stroke-linecap="round"/>
    <circle cx="26" cy="26" r="4" fill="#D85A30"/>
    <circle cx="26" cy="26" r="1.6" fill="white"/>
    <text x="62" y="34" font-family="'Helvetica Neue',Arial,sans-serif" font-size="32" letter-spacing="-0.5">
      <tspan font-weight="800" fill="#111">Renn</tspan><tspan font-weight="300" fill="#D85A30">Markt</tspan>
    </text>
  </g>
</svg>
